<svg width="120" height="120" viewBox="0 0 120 120" fill="none" xmlns="http://www.w3.org/2000/svg">
<path fill-rule="evenodd" clip-rule="evenodd" d="M60 120C27 120 0 93.0006 0 59.7012C0.3 26.7019 27 -0.297518 60.3 0.00247602C93.3 0.30247 120 27.0019 120 60.6012C119.7 93.3006 93 120 60 120Z" fill="#EDF0F4"/>
<path fill-rule="evenodd" clip-rule="evenodd" d="M60 98C80.9868 98 98 80.9868 98 60C98 39.0132 80.9868 22 60 22V26.6233C78.4334 26.6233 93.3767 41.5666 93.3767 60C93.3767 78.4334 78.4334 93.3767 60 93.3767V98Z" fill="#FFBC00"/>
<path fill-rule="evenodd" clip-rule="evenodd" d="M26.6233 60H22C22 80.9868 39.0132 98 60 98V93.3767C41.5714 93.365 26.635 78.4286 26.6233 60" fill="#FFBC00"/>
<path fill-rule="evenodd" clip-rule="evenodd" d="M35.553 60C35.553 73.5015 46.4982 84.4467 59.9997 84.4467C73.5012 84.4467 84.4464 73.5015 84.4464 60H89.0697C89.0697 76.0549 76.0546 89.07 59.9997 89.07C43.9448 89.07 30.9297 76.0549 30.9297 60L35.553 60Z" fill="#FFBC00"/>
<path opacity="0.3" fill-rule="evenodd" clip-rule="evenodd" d="M59.9997 35.5535V30.9302C43.9544 30.9534 30.9529 43.9549 30.9297 60.0002H35.553C35.5647 46.5035 46.503 35.5651 59.9997 35.5535Z" fill="#FFBC00"/>
<path fill-rule="evenodd" clip-rule="evenodd" d="M60 44.4622C51.4187 44.4622 44.4622 51.4187 44.4622 60C44.4622 68.5813 51.4187 75.5378 60 75.5378V80.1611C48.8653 80.1611 39.8389 71.1347 39.8389 60C39.8389 48.8653 48.8653 39.8389 60 39.8389" fill="#FFBC00"/>
<path opacity="0.3" fill-rule="evenodd" clip-rule="evenodd" d="M60 39.8389V44.4622C68.5765 44.4738 75.5261 51.4235 75.5378 60H80.1611C80.1379 48.8749 71.125 39.8621 60 39.8389Z" fill="#FFBC00"/>
<path fill-rule="evenodd" clip-rule="evenodd" d="M60 48.769C66.2028 48.769 71.2311 53.7974 71.2311 60.0002C71.2311 66.2029 66.2028 71.2313 60 71.2313V66.6079C63.6494 66.6079 66.6078 63.6495 66.6078 60.0002C66.6078 56.3508 63.6494 53.3924 60 53.3924" fill="#FFBC00"/>
<path opacity="0.3" fill-rule="evenodd" clip-rule="evenodd" d="M59.9997 48.769C53.8017 48.7807 48.7802 53.8022 48.7686 60.0002H53.3919C53.3919 58.2477 54.0881 56.5669 55.3273 55.3277C56.5665 54.0886 58.2472 53.3924 59.9997 53.3924V48.769Z" fill="#FFBC00"/>
<path fill-rule="evenodd" clip-rule="evenodd" d="M74.1652 74.2922L70.893 71.02C69.5726 72.3264 68.028 73.3847 66.333 74.1445L68.2752 78.3667C70.4377 77.3635 72.4093 75.992 74.1019 74.3134" fill="#FFBC00"/>
<path fill-rule="evenodd" clip-rule="evenodd" d="M43.9977 25.5254C39.919 27.3992 36.2084 29.9873 33.041 33.1676L36.2077 36.5454C39.0099 33.6993 42.308 31.3885 45.9399 29.7265L43.9977 25.5254Z" fill="#FFBC00"/>
<path fill-rule="evenodd" clip-rule="evenodd" d="M86.3044 47.8609C84.881 44.7161 82.8998 41.8551 80.4566 39.4165L77.1211 42.6887C79.208 44.7313 80.8974 47.1437 82.1033 49.8032L86.3044 47.8609Z" fill="#FFBC00"/>
</svg>
