<svg width="120" height="120" viewBox="0 0 120 120" fill="none" xmlns="http://www.w3.org/2000/svg">
<circle cx="60" cy="60" r="60" fill="#EDF0F4"/>
<path d="M97.3507 74.3909C97.353 64.7367 97.353 55.0826 97.3507 45.4287C97.3898 44.4416 96.8941 43.4593 96.1019 42.8774C84.5977 34.4717 73.0934 26.0647 61.5889 17.6565C60.885 17.106 59.9774 16.8869 59.0999 17.0556C58.5638 17.1608 58.0806 17.429 57.6502 17.7517C46.2278 26.1005 34.8049 34.4488 23.3814 42.7967C22.5146 43.3992 21.9999 44.3898 22.0051 45.4454C21.9983 55.0971 21.9983 64.7483 22.0051 74.3991C21.9901 75.4445 22.5326 76.459 23.3922 77.0478C34.8145 85.3923 46.2346 93.7386 57.6523 102.087C58.7449 103.021 60.459 103.095 61.5868 102.184C73.0543 93.8108 84.5176 85.4335 95.9766 77.0521C96.8396 76.4706 97.3979 75.4381 97.3498 74.3914" fill="#050708"/>
<path d="M55.6986 23.9655C56.0016 23.6222 56.3089 23.0871 56.8414 23.1583C58.6529 23.169 60.4686 23.13 62.2797 23.1776C62.5934 23.3725 62.8337 23.6647 63.1019 23.9158C63.0951 25.7852 63.0951 27.655 63.1019 29.5252C62.5629 29.5317 62.0222 29.5557 61.4832 29.5188C61.4505 29.3866 61.3857 29.127 61.3544 28.9952C61.3544 27.5992 61.4754 26.2014 61.3587 24.8075C60.0275 24.8095 58.6971 24.8095 57.3676 24.8075C57.3611 25.277 57.359 25.7491 57.3547 26.2186C56.7942 26.2186 56.2316 26.2186 55.669 26.2143C55.6729 25.4671 55.5905 24.7075 55.6986 23.9655Z" fill="white"/>
<path d="M51.1826 26.2465C51.795 26.2229 52.4074 26.2229 53.022 26.2379C53.0305 28.824 53.0413 31.4079 53.0155 33.9918C52.431 34.0047 51.8469 34.0047 51.2646 34.0004C51.0702 31.4255 51.2255 28.8304 51.1826 26.2465Z" fill="white"/>
<path d="M66.7609 29.025C68.3917 29.0035 70.0199 29.01 71.6498 29.0207C71.6584 29.6181 71.6584 30.2133 71.6498 30.8102C70.019 30.8274 68.3882 30.8339 66.7574 30.806C66.7514 30.2129 66.7514 29.6159 66.7574 29.025" fill="white"/>
<path d="M56.8721 29.9056C57.53 29.8905 58.1879 29.8927 58.8462 29.8927C59.4757 31.1175 60.2658 32.2603 60.7774 33.5435C60.1735 33.5718 59.5676 33.5718 58.9638 33.574C58.2462 32.3625 57.5536 31.1368 56.8721 29.9056Z" fill="white"/>
<path d="M63.589 32.0594C64.1581 32.0465 64.7271 32.0487 65.2988 32.0573C66.848 34.4605 68.3539 36.8921 69.9148 39.2898C69.9148 40.0193 69.9148 40.7489 69.9019 41.4785C69.7328 41.448 69.3998 41.3896 69.2333 41.3617C67.9089 39.3876 66.6905 37.3431 65.3812 35.3605C65.3597 37.5921 65.3876 39.8237 65.3662 42.0552C64.7731 42.0661 64.1787 42.0661 63.583 42.0552C63.5757 38.7246 63.565 35.3918 63.589 32.0594Z" fill="white"/>
<path d="M70.6612 33.4115C71.2672 33.3986 71.8753 33.3986 72.4813 33.4158C72.4856 33.987 72.4856 34.5608 72.4813 35.1324C71.8753 35.1474 71.2672 35.1474 70.6634 35.1367C70.6591 34.5628 70.6591 33.9877 70.6634 33.4115" fill="white"/>
<path d="M40.7034 33.9762C41.1815 33.9676 41.66 33.9697 42.1381 33.974C43.4148 33.8882 44.6894 33.9135 45.9666 33.9869C45.9709 34.5409 45.9666 35.0971 45.9623 35.6512C44.074 36.785 42.2596 38.0424 40.3442 39.1273C39.7795 38.9127 39.3486 38.4608 38.8877 38.084C40.1408 37.3201 41.3678 36.5151 42.6338 35.7726C41.993 35.74 41.3506 35.7443 40.7099 35.7379C40.6987 35.1491 40.6966 34.5618 40.7034 33.9762Z" fill="white"/>
<path d="M55.8091 34.6342C56.3958 34.617 56.9841 34.6191 57.5687 34.6342C57.5837 35.223 57.5837 35.8092 57.5687 36.398C56.9821 36.4151 56.3956 36.4159 55.8091 36.4001C55.7954 35.8113 55.7954 35.2227 55.8091 34.6342Z" fill="white"/>
<path d="M47.2006 36.3567C48.1401 37.7806 49.0512 39.2243 50.003 40.6396C50.9532 39.2071 51.8707 37.7527 52.8294 36.3267C52.8294 37.2708 52.8921 38.2248 52.8101 39.1681C51.9402 40.659 50.9339 42.0679 49.9966 43.518C49.0748 42.0919 48.0984 40.6959 47.2243 39.2419C47.1251 38.2849 47.1964 37.3176 47.2006 36.3567Z" fill="white"/>
<path d="M73.2067 36.597C76.0263 36.5842 78.8461 36.5849 81.6662 36.5992C81.6662 37.1704 81.6662 37.7442 81.6636 38.3158C78.8458 38.3224 76.0268 38.3231 73.2067 38.3179C73.2041 37.7442 73.2024 37.1691 73.2067 36.597Z" fill="white"/>
<path d="M58.2805 38.8305C58.8475 38.8197 59.4165 38.8197 59.986 38.8262C60.0143 41.3277 59.986 43.8318 60.001 46.3363C59.7371 46.5874 59.4753 46.8428 59.2178 47.0981C57.2634 47.1196 55.3095 47.0981 53.3573 47.1088C53.0998 46.8621 52.8359 46.626 52.6041 46.36C52.5046 45.5939 52.578 44.8124 52.5758 44.0425C53.1194 44.0382 53.6647 44.0382 54.2117 44.0425C54.2268 44.4841 54.2246 44.9253 54.2182 45.3669C55.5623 45.5184 56.9167 45.4098 58.2672 45.4424C58.2741 43.2387 58.2526 41.0316 58.2805 38.8305Z" fill="white"/>
<path d="M85.5426 46.2252C85.5249 44.3369 85.5249 42.4476 85.5426 40.5574C86.1335 40.5445 86.7241 40.5423 87.3171 40.5574C87.3363 42.4456 87.3363 44.3356 87.3171 46.2273C86.7258 46.2372 86.1353 46.235 85.5443 46.2273" fill="white"/>
<path d="M77.1218 41.9839C78.2376 41.9732 79.3594 41.7998 80.4692 41.9796C81.1962 44.3494 81.8197 46.7557 82.5424 49.1298C81.9712 49.134 81.3974 49.134 80.8258 49.134C80.2803 47.2926 79.8151 45.4292 79.2525 43.5915C78.9388 43.5958 78.6251 43.6001 78.311 43.6023C77.8436 45.4571 77.281 47.2835 76.7982 49.1315C76.2223 49.1335 75.6466 49.1328 75.0713 49.1293C75.7798 46.7557 76.4446 44.3657 77.1218 41.9839Z" fill="white"/>
<path d="M29.4176 42.8883C31.9886 42.8733 34.5618 42.8668 37.1325 42.8883C37.1475 43.4792 37.1475 44.0676 37.1346 44.6586C34.5597 44.6822 31.9882 44.6757 29.415 44.6607C29.4069 44.0698 29.4069 43.4754 29.4176 42.8862" fill="white"/>
<path d="M38.345 42.8908C38.9295 42.8865 39.5136 42.8843 40.1002 42.8908C40.1131 43.4839 40.1131 44.0787 40.1002 44.6718C39.5136 44.6782 38.9295 44.6761 38.345 44.6718C38.3381 44.0787 38.3381 43.4877 38.345 42.8951" fill="white"/>
<path d="M44.8068 42.9637C45.3801 42.9594 45.956 42.9615 46.5294 42.968C46.5466 44.3412 46.538 45.7184 46.538 47.093C45.9556 47.0973 45.3737 47.0994 44.7939 47.093C44.7879 45.7197 44.7699 44.3391 44.8068 42.9615" fill="white"/>
<path d="M89.7495 44.1974C90.4095 44.1846 91.0717 44.1867 91.7317 44.1846C92.3853 45.3965 93.1797 46.5449 93.6663 47.8397C93.0655 47.8611 92.4608 47.8633 91.8592 47.8658C91.1476 46.6475 90.47 45.4089 89.749 44.1974" fill="white"/>
<path d="M63.7281 45.6673C64.3004 45.663 64.8726 45.663 65.4448 45.6673C65.4576 47.55 65.4486 49.4327 65.4486 51.3158C64.8731 51.3201 64.2994 51.3222 63.7243 51.3222C63.7243 49.4378 63.7213 47.5508 63.7281 45.6651" fill="white"/>
<path d="M69.7649 47.9567C69.758 47.3679 69.758 46.7778 69.7649 46.1865C70.3426 46.1779 70.9236 46.1779 71.5026 46.1929C71.5026 46.7817 71.5068 47.3701 71.4983 47.9589C70.9215 47.961 70.3396 47.9589 69.7628 47.9589" fill="white"/>
<path d="M37.1025 50.5663C38.4896 49.5535 39.9701 48.6729 41.3941 47.7163C42.3356 47.727 43.2746 47.7163 44.2162 47.7292C42.818 48.7291 41.3314 49.5926 39.9246 50.5792C41.3705 51.4881 42.788 52.4404 44.2248 53.358C43.2575 53.3751 42.2901 53.3644 41.3228 53.3665C39.9268 52.419 38.4767 51.5456 37.1025 50.5663" fill="white"/>
<path d="M85.5446 48.9241C86.1373 48.9112 86.7304 48.909 87.3256 48.9241C87.3402 49.5171 87.3385 50.1077 87.3213 50.7007C86.7304 50.7136 86.1377 50.7115 85.5468 50.7007C85.5339 50.1097 85.5339 49.5189 85.5468 48.9283" fill="white"/>
<path d="M24.663 49.1666C27.6242 49.1495 30.5905 49.143 33.5555 49.1709C33.5619 49.7314 33.5619 50.294 33.5641 50.8566C32.2397 51.7244 30.9153 52.5964 29.5541 53.4015C28.9786 53.1916 28.5434 52.7149 28.052 52.3651C28.7854 51.902 29.53 51.454 30.2407 50.9583C28.3816 50.9497 26.5229 50.9691 24.6617 50.9476C24.6531 50.3545 24.6531 49.7609 24.6617 49.1666" fill="white"/>
<path d="M50.0181 50.885C52.5827 50.8957 55.1469 50.8721 57.7094 50.8957C57.7717 51.4789 57.7638 52.0675 57.6858 52.6488C55.1297 52.6595 52.5763 52.6509 50.0228 52.6531C50.0182 52.0617 50.0167 51.4723 50.0181 50.885Z" fill="white"/>
<path d="M59.384 50.8955C60.0007 50.8826 60.6152 50.8826 61.2323 50.9041C61.2343 51.4797 61.2335 52.0539 61.2297 52.6267C60.6152 52.6439 59.9985 52.6439 59.3844 52.6331C59.3784 52.0534 59.3784 51.4744 59.3844 50.8955" fill="white"/>
<path d="M67.4504 53.3759C67.3702 52.7678 67.9937 52.4562 68.3139 52.0387C69.067 52.0387 69.8198 52.0344 70.5734 52.0494C70.5905 52.6163 70.5905 53.1832 70.5815 53.7527C70.106 53.7613 69.6271 53.7613 69.1516 53.7677V57.806C71.3652 57.8211 73.5792 57.7975 75.7932 57.8189C75.7996 58.3923 75.7996 58.966 75.7846 59.5355C73.2916 59.5527 70.7961 59.5377 68.3031 59.5441C67.9851 59.1287 67.3749 58.8146 67.4526 58.2112C67.4414 56.6001 67.4414 54.9884 67.4526 53.3759" fill="white"/>
<path d="M75.8445 52.8388C76.4547 52.8174 77.0693 52.8174 77.6817 52.8388C77.6883 53.4231 77.6883 54.0074 77.6817 54.5919C77.0693 54.6134 76.459 54.6134 75.8466 54.5919C75.8402 54.0053 75.8402 53.4212 75.8466 52.8346" fill="white"/>
<path d="M81.6776 52.8388C84.2572 52.804 86.8347 52.8281 89.4143 52.8259C89.4186 53.4212 89.4186 54.0186 89.4118 54.6134C86.8343 54.6134 84.2572 54.6348 81.6793 54.6026C81.6707 54.0138 81.6707 53.4259 81.6793 52.8388" fill="white"/>
<path d="M45.9436 54.8972C47.3894 54.895 48.8326 54.8972 50.278 54.895C50.2909 55.4958 50.2909 56.0966 50.278 56.6975C48.8344 56.6998 47.3915 56.6998 45.9496 56.6975C45.9244 56.0966 45.9231 55.4965 45.9457 54.8972" fill="white"/>
<path d="M55.4762 54.8971C57.7443 54.895 60.0123 54.8971 62.28 54.8928C63.104 54.7641 63.9292 55.6198 63.8249 56.4335C63.8201 58.0994 63.8192 59.7673 63.8224 61.437C63.5322 61.7507 63.2404 62.0601 62.9482 62.3717C62.1972 62.3717 61.4487 62.3717 60.6977 62.3631C60.6914 61.7909 60.6907 61.2195 60.6955 60.649C61.165 60.6426 61.6354 60.6383 62.1045 60.6319C62.1045 59.3204 62.1045 58.0067 62.1087 56.6953C59.9055 56.4983 57.6855 56.6626 55.4758 56.6043C55.4703 56.0321 55.4703 55.463 55.4758 54.8971" fill="white"/>
<path d="M39.4915 55.4247C40.5995 55.4183 41.7055 55.4118 42.8135 55.429C43.4843 57.8245 44.2048 60.2072 44.8391 62.6139C44.2812 62.6139 43.7233 62.6139 43.1684 62.6182C42.5994 60.7698 42.1599 58.8871 41.5733 57.0477C41.2574 57.0671 40.9416 57.0907 40.6253 57.1147C40.2056 58.9674 39.606 60.7719 39.1473 62.616C38.5739 62.616 38.0002 62.616 37.4307 62.6096C38.113 60.2145 38.7924 57.8159 39.4906 55.4247" fill="white"/>
<path d="M87.832 57.5892C89.7632 57.5699 91.697 57.5501 93.6256 57.5956C94.1127 57.896 94.662 58.3836 94.556 59.0239C94.556 60.3971 94.5474 61.7743 94.556 63.1489C94.5389 63.8089 94.5689 64.469 94.5496 65.129C94.58 65.668 94.4329 66.198 94.4637 66.7392C93.914 66.7392 93.3643 66.7392 92.8145 66.7327C92.821 64.2527 92.8145 61.7704 92.8188 59.2904C91.47 59.2535 90.1224 59.2818 88.774 59.2711C88.7715 59.732 88.7715 60.1929 88.7633 60.6559C88.196 60.6645 87.6288 60.6674 87.0617 60.6645C87.051 59.9049 87.0536 59.1432 87.0553 58.3836C87.3166 58.1218 87.5741 57.8574 87.8316 57.5892" fill="white"/>
<path d="M32.8758 57.6582H34.6696C34.6739 59.543 34.6696 61.4257 34.6696 63.3089H32.8672C32.8758 61.4262 32.8693 59.5413 32.8736 57.6582" fill="white"/>
<path d="M27.2468 59.2341C27.8356 59.2255 28.424 59.2427 29.0106 59.2817C29.0172 59.8399 29.0172 60.399 29.0106 60.9589C28.4175 60.9653 27.8249 60.9674 27.2318 60.9589C27.2253 60.3829 27.2275 59.8096 27.2468 59.2362" fill="white"/>
<path d="M48.3256 69.5634C48.3102 66.2306 48.3095 62.8975 48.3235 59.5641C48.908 59.5555 49.4921 59.5555 50.0766 59.5684C51.4499 61.7824 52.8661 63.9723 54.2685 66.1709C54.8745 66.952 54.511 67.9995 54.6084 68.9085C54.405 68.9085 54.2016 68.9128 54.0003 68.9171C52.7386 66.9129 51.4207 64.9435 50.213 62.9089C49.9946 65.1208 50.174 67.3519 50.1027 69.5724C49.5084 69.5784 48.9161 69.5784 48.3256 69.5634Z" fill="white"/>
<path d="M56.1182 60.8458C56.713 60.8329 57.3081 60.8315 57.9034 60.8415C57.912 62.2981 57.9099 63.7546 57.9034 65.2107C57.3061 65.2215 56.7108 65.2215 56.1139 65.2064C56.104 63.7525 56.1014 62.2981 56.1139 60.8458" fill="white"/>
<path d="M66.9075 62.7941C67.4899 62.7898 68.0739 62.7877 68.6584 62.7941C68.6693 63.3872 68.6693 63.9801 68.6584 64.5729C68.0739 64.5752 67.4903 64.5752 66.9075 64.5729C66.9006 63.9821 66.9006 63.3899 66.9075 62.7962" fill="white"/>
<path d="M72.5832 62.8717C74.3968 62.8481 76.2104 62.861 78.0261 62.8653C78.0995 63.3953 78.145 63.9343 78.0931 64.4712C77.9214 64.8196 77.5107 64.681 77.2034 64.7136C75.6585 64.6682 74.1088 64.8025 72.5746 64.6278C72.5639 64.0403 72.5639 63.4562 72.5832 62.8717Z" fill="white"/>
<path d="M79.9004 63.1227C80.4849 63.1141 81.0754 63.075 81.6599 63.1656C81.7161 65.2126 81.6835 67.2666 81.6728 69.3162C81.082 69.3271 80.4919 69.3271 79.9025 69.3162C79.8828 67.2525 79.8828 65.1888 79.9025 63.1248" fill="white"/>
<path d="M63.7278 64.3356C64.299 64.3356 64.8728 64.3314 65.4444 64.3356C65.4509 64.9244 65.4526 65.515 65.4444 66.108C64.8722 66.1166 64.3 66.1166 63.7278 66.108C63.7235 65.5175 63.7235 64.9244 63.7278 64.3335" fill="white"/>
<path d="M36.2129 65.5941C38.2514 65.3736 40.3096 65.5487 42.3567 65.4839C42.8842 65.4771 43.4116 65.5009 43.9364 65.5551C43.945 66.1503 43.9428 66.7477 43.9364 67.3425C41.3615 67.3382 38.7921 67.3554 36.2215 67.3339C36.206 66.7541 36.206 66.1752 36.2108 65.5941" fill="white"/>
<path d="M24.6652 66.9102C24.9446 66.6377 25.2257 66.3626 25.5072 66.0901C26.2518 66.0858 26.9959 66.0836 27.7388 66.0987C27.7474 66.6613 27.7474 67.226 27.7431 67.7887C27.28 67.7994 26.8191 67.8015 26.3561 67.8058C26.3668 69.1478 26.3496 70.4893 26.3668 71.8313C28.5589 71.8377 30.7515 71.8163 32.9436 71.842C32.9543 72.3961 32.9543 72.9479 32.95 73.502C32.4067 73.5041 31.8612 73.5063 31.3192 73.5063C29.3739 73.487 27.426 73.5389 25.4827 73.4827C25.1583 73.2986 24.8313 72.9956 24.6841 72.6518C24.633 70.7391 24.6781 68.8238 24.6674 66.9102" fill="white"/>
<path d="M70.1448 68.026C70.437 67.7513 70.7314 67.4762 71.0323 67.208C72.9278 67.223 74.8238 67.208 76.7194 67.2144C77.0052 67.487 77.2906 67.762 77.5777 68.0324C77.58 69.9087 77.58 71.7842 77.5777 73.659C77.0001 73.6633 76.422 73.659 75.8465 73.644C75.8465 72.0665 75.8336 70.491 75.8529 68.9135C74.5226 68.9113 73.1978 68.9135 71.8708 68.9113C71.873 69.3915 71.8708 69.8722 71.8601 70.3524C71.2911 70.361 70.722 70.361 70.1547 70.3589C70.1362 69.5812 70.1405 68.8045 70.1426 68.026" fill="white"/>
<path d="M82.3151 71.338C84.418 69.9682 86.5419 68.6344 88.6623 67.2954C89.1687 67.6332 89.6665 67.9881 90.16 68.343C88.634 69.3157 87.1091 70.286 85.5853 71.2539C87.825 71.2775 90.0652 71.2539 92.3071 71.2668C92.3114 71.862 92.3114 72.4594 92.3071 73.0542C88.978 73.0651 85.6495 73.0651 82.3216 73.0542C82.313 72.4804 82.313 71.9071 82.3173 71.3376" fill="white"/>
<path d="M58.5166 71.6771C60.6267 70.2725 62.8038 68.9696 64.9136 67.5654C65.4152 67.9118 65.9113 68.2645 66.422 68.5954C64.9629 69.6211 63.4141 70.515 61.9271 71.5038C64.154 71.5428 66.3808 71.4995 68.6077 71.5274C68.6227 72.1398 68.6227 72.7543 68.6077 73.3667C65.2749 73.386 61.9417 73.3732 58.6084 73.3732C58.5226 72.8114 58.5226 72.2423 58.5187 71.675" fill="white"/>
<path d="M36.611 70.1625C37.5371 71.5787 38.4658 72.9949 39.3812 74.415C40.3635 73.0125 41.2424 71.5397 42.2162 70.1299C42.2355 71.0843 42.2205 72.0409 42.229 72.9953C41.2596 74.415 40.3721 75.8908 39.3769 77.2912C38.4551 75.8844 37.5611 74.4588 36.6003 73.0777C36.5908 72.1061 36.581 71.1324 36.611 70.1625Z" fill="white"/>
<path d="M46.7618 73.7959C46.7403 73.19 46.7382 72.584 46.7725 71.9802C47.3549 71.9738 47.9411 71.9759 48.5234 72.0231C48.5363 72.6136 48.5363 73.2044 48.5234 73.7955C47.9381 73.8002 47.3514 73.8024 46.7639 73.7955" fill="white"/>
<path d="M55.0133 74.6707C55.6042 74.6643 56.1969 74.6621 56.7879 74.6707C56.8029 76.8714 56.7879 79.0725 56.7964 81.2732C56.3767 81.2904 55.9566 81.3101 55.5369 81.3488C55.4025 81.3226 55.1343 81.2754 55 81.2513C55.0133 79.0592 54.9893 76.865 55.0133 74.6728" fill="white"/>
<path d="M67.2377 76.0514C68.3535 76.03 69.4662 76.045 70.5812 76.0386C71.265 78.4341 71.9496 80.8298 72.6351 83.2256C72.0596 83.2256 71.4837 83.2256 70.9103 83.2127C70.4211 81.382 69.8911 79.5619 69.3933 77.7333C69.0817 77.714 68.7702 77.7007 68.4586 77.6857C67.9436 79.5336 67.4301 81.3811 66.9179 83.2282C66.3424 83.2282 65.7687 83.2282 65.1953 83.2196C65.8961 80.8348 66.5931 78.45 67.2377 76.0527" fill="white"/>
<path d="M41.9716 80.0201C44.0946 78.6567 46.2133 77.2847 48.3659 75.9668C48.8616 76.3153 49.3616 76.6534 49.8525 77.0101C48.3119 77.9688 46.8012 78.9773 45.2451 79.9099C47.5003 79.9528 49.7573 79.9034 52.0146 79.936C52.0253 80.5291 52.0275 81.1218 52.0103 81.7149C48.6668 81.7256 45.3232 81.7411 41.9797 81.7084C41.963 81.1454 41.9651 80.5828 41.9716 80.0201Z" fill="white"/>
<path d="M59.5078 76.402C60.1294 76.4088 60.7507 76.3712 61.3669 76.2896C62.0965 77.4912 62.9573 78.6829 63.332 80.0506C62.7496 80.0549 62.1677 80.0549 61.5879 80.0592C60.903 78.8344 60.2096 77.6153 59.5078 76.402Z" fill="white"/>
<path d="M84.0854 77.1355C84.6935 77.1162 85.3038 77.1162 85.9136 77.1291C85.9162 77.711 85.9162 78.294 85.9136 78.8779C85.3038 78.8929 84.6953 78.8929 84.0871 78.8672C84.0764 78.2891 84.0764 77.7136 84.0871 77.1355" fill="white"/>
<path d="M79.6039 81.7925C80.3399 80.6089 81.1274 79.4596 81.8677 78.2781C81.8891 79.1545 81.9024 80.0334 81.8805 80.9119C81.902 81.241 81.6621 81.4964 81.5085 81.7624C80.6931 82.9679 79.9112 84.197 79.1108 85.4102C78.1478 83.9734 77.2152 82.5212 76.2629 81.0758C76.2586 80.1149 76.25 79.154 76.2737 78.1953C77.2083 79.5956 78.0915 81.0324 79.0481 82.4195C79.3181 82.3053 79.4395 82.0156 79.606 81.7925" fill="white"/>
<path d="M34.3135 80.0894C35.8739 80.0375 37.4365 80.0633 38.999 80.0744C39.0076 80.6521 39.0445 81.2331 38.9707 81.8099C37.421 81.8854 35.8654 81.849 34.3157 81.8206C34.3092 81.243 34.3092 80.6671 34.3135 80.0894Z" fill="white"/>
<path d="M53.3356 83.8621C55.8371 83.8252 58.337 83.8621 60.8385 83.8428C61.1246 84.1289 61.4107 84.4167 61.6968 84.7062C61.6861 86.6172 61.6904 88.5304 61.6925 90.4453C61.4416 90.7071 61.1934 90.9719 60.9479 91.2397C60.1471 91.2568 59.3463 91.259 58.5447 91.2354C58.5554 90.6942 58.4863 90.1423 58.6159 89.6123C59.0682 89.5647 59.5227 89.5818 59.9793 89.5775C59.9836 88.2382 59.9793 86.9005 59.9793 85.5632C57.7632 85.5504 55.5449 85.5916 53.3313 85.5418C53.3245 84.9813 53.3245 84.4214 53.3313 83.8621" fill="white"/>
<path d="M41.3187 84.4977C41.9029 84.4891 42.488 84.4906 43.0739 84.502C43.0825 85.0859 43.0832 85.6717 43.0761 86.2594C42.4873 86.268 41.9008 86.2687 41.3166 86.2615C41.3085 85.6727 41.3085 85.0848 41.3166 84.4977" fill="white"/>
<path d="M72.2692 85.4431C72.9314 84.8852 73.5331 85.8152 74.1 86.0869C74.1 86.1388 74.1 86.2448 74.1 86.2967C72.6199 87.2512 71.1049 88.1537 69.657 89.1579L70.4968 89.1514C70.9423 89.1514 71.3896 89.1564 71.8388 89.1665C71.8431 89.751 71.8431 90.3372 71.8345 90.9217C70.0123 90.9479 68.1901 90.941 66.3679 90.926C66.331 90.3741 66.325 89.8201 66.3203 89.2703C68.2657 87.9399 70.2956 86.7383 72.2671 85.4431" fill="white"/>
<path d="M44.6061 87.0662C46.9716 87.0576 49.3392 87.0448 51.7043 87.0727C51.7086 87.6546 51.7086 88.2375 51.7043 88.8215C49.3366 88.8562 46.9712 88.8408 44.6039 88.83C44.5932 88.2417 44.5954 87.6529 44.6039 87.0662" fill="white"/>
<path d="M50.9102 91.5593C51.5766 91.5529 52.2431 91.5507 52.91 91.5636C53.5267 92.7906 54.3468 93.9205 54.821 95.2166C54.2236 95.2492 53.6284 95.2492 53.0315 95.2535C52.3019 94.0351 51.62 92.7876 50.9102 91.5593Z" fill="white"/>
<path d="M62.7232 93.4248C63.3056 93.4205 63.8875 93.4291 64.4673 93.4677C64.478 94.0501 64.4738 94.6342 64.4004 95.2144C63.8442 95.2167 63.2894 95.2167 62.7361 95.2144C62.7147 94.6136 62.7147 94.0201 62.7228 93.4248" fill="white"/>
<path d="M58.6661 99.2162C58.6661 97.8571 58.6356 96.4958 58.6876 95.1367C59.2742 95.1367 59.8626 95.1693 60.4471 95.2225C60.4537 96.5535 60.4537 97.8852 60.4471 99.2175C59.8531 99.2267 59.2595 99.2267 58.6661 99.2175" fill="white"/>
</svg>
