<svg width="120" height="120" viewBox="0 0 120 120" fill="none" xmlns="http://www.w3.org/2000/svg">
<circle cx="60" cy="60" r="60" fill="#7012FE"/>
<path d="M51.1534 88.8947C44.3733 89.6696 39.4497 94.2219 37.8354 96.4012C37.0283 93.4955 36.092 86.3764 38.804 81.1461C41.516 75.9158 59.3056 71.8639 67.8613 70.4918C57.6106 68.2317 37.109 61.145 37.109 50.878C37.109 38.0444 54.3012 32.9593 65.682 31.2643C74.7867 29.9083 80.7757 25.8564 82.6322 24C82.4707 27.4707 80.4529 35.7682 73.6728 41.1923C66.8928 46.6163 55.8348 48.7795 51.1534 49.183C61.3235 50.7973 81.6152 57.0285 81.4215 69.0389C81.1793 84.0518 59.6285 87.9262 51.1534 88.8947Z" fill="white"/>
<path d="M71.2507 52.0889C69.3134 50.9267 65.762 49.6675 64.2285 49.1832C66.2464 48.4568 70.9602 46.6649 73.6724 45.3089C76.3846 43.9529 79.4838 40.3853 80.6943 38.771C80.9366 40.5467 81.2757 44.9215 80.6943 48.2146C80.113 51.5078 77.5464 54.5911 76.3357 55.7211C75.4479 54.9947 73.1881 53.2512 71.2507 52.0889Z" fill="white"/>
</svg>
