<svg width="34" height="34" viewBox="0 0 34 34" fill="none" xmlns="http://www.w3.org/2000/svg">
<g id="Sui Coin">
<path id="Coin" d="M17 34C26.3888 34 34 26.3888 34 17C34 7.61116 26.3888 0 17 0C7.61116 0 0 7.61116 0 17C0 26.3888 7.61116 34 17 34Z" fill="#4CA3FF"/>
<path id="Sui" fill-rule="evenodd" clip-rule="evenodd" d="M23.1885 14.8851L23.188 14.8862C24.2283 16.1906 24.85 17.8428 24.85 19.6398C24.85 21.4635 24.2097 23.1381 23.1413 24.4514L23.0493 24.5644L23.0249 24.4207C23.0042 24.2985 22.9798 24.1751 22.9515 24.0507C22.4168 21.7015 20.6747 19.687 17.8075 18.0559C15.8713 16.9575 14.763 15.6348 14.472 14.132C14.2841 13.1603 14.4238 12.1842 14.6938 11.3482C14.9637 10.5124 15.3653 9.81216 15.7064 9.3906L15.7066 9.39032L16.822 8.02647C17.0176 7.78731 17.3836 7.78731 17.5792 8.02647L23.1885 14.8851ZM24.9526 13.5225L24.9528 13.522L17.4769 4.3809C17.3342 4.20637 17.0669 4.20637 16.9242 4.3809L9.44821 13.5221L9.44842 13.5226L9.4241 13.5528C8.04837 15.2599 7.2251 17.4293 7.2251 19.7909C7.2251 25.2911 11.6912 29.75 17.2006 29.75C22.71 29.75 27.176 25.2911 27.176 19.7909C27.176 17.4294 26.3527 15.2599 24.977 13.5528L24.9526 13.5225ZM11.237 14.8556L11.2373 14.8553L11.906 14.0376L11.9262 14.1886C11.9422 14.3081 11.9616 14.4283 11.9846 14.549C12.4173 16.8191 13.9629 18.7119 16.5469 20.1779C18.7931 21.4563 20.1009 22.9263 20.4778 24.5386C20.635 25.2114 20.663 25.8734 20.5949 26.4522L20.5907 26.488L20.5583 26.5038C19.5445 26.9991 18.4048 27.2771 17.2003 27.2771C12.9756 27.2771 9.55063 23.8578 9.55063 19.6398C9.55063 17.8288 10.182 16.1647 11.237 14.8556Z" fill="white"/>
</g>
</svg>
